<svg xmlns="http://www.w3.org/2000/svg" width="900" height="260" viewBox="0 0 900 260" role="img" aria-labelledby="title description">
  <title id="title">GitHub activity dashboard for shakibul742</title>
  <desc id="description">GitHub activity dashboard. Statistics refresh automatically through GitHub Actions.</desc>
  <defs>
    <linearGradient id="surface" x1="0" y1="0" x2="1" y2="1"><stop stop-color="#111c2d"/><stop offset="1" stop-color="#0b111d"/></linearGradient>
    <linearGradient id="accent" x1="0" x2="1"><stop stop-color="#42e8b5"/><stop offset="1" stop-color="#62a7ff"/></linearGradient>
  </defs>
  <rect width="900" height="260" rx="22" fill="#080d16"/>
  <rect x="1" y="1" width="898" height="258" rx="21" fill="url(#surface)" stroke="#27364b"/>
  <rect x="32" y="34" width="6" height="40" rx="3" fill="url(#accent)"/>
  <text x="54" y="49" fill="#dce9fa" font-family="Arial, Helvetica, sans-serif" font-size="13" font-weight="700" letter-spacing="2.5">GITHUB ACTIVITY</text>
  <text x="54" y="69" fill="#7f96b2" font-family="Arial, Helvetica, sans-serif" font-size="12">Reliable local snapshot • refreshed by GitHub Actions</text>
  <line x1="32" y1="94" x2="500" y2="94" stroke="#25344a"/>
  <text x="32" y="124" fill="#7f96b2" font-family="Arial, Helvetica, sans-serif" font-size="11" font-weight="700" letter-spacing="1.4">CURRENT STREAK</text>
  <text x="32" y="166" fill="#8ef0c4" font-family="Arial, Helvetica, sans-serif" font-size="30" font-weight="700">Syncing<tspan font-size="15" fill="#7f96b2"> soon</tspan></text>
  <text x="205" y="124" fill="#7f96b2" font-family="Arial, Helvetica, sans-serif" font-size="11" font-weight="700" letter-spacing="1.4">LONGEST STREAK</text>
  <text x="205" y="166" fill="#dce9fa" font-family="Arial, Helvetica, sans-serif" font-size="30" font-weight="700">Syncing</text>
  <text x="378" y="124" fill="#7f96b2" font-family="Arial, Helvetica, sans-serif" font-size="11" font-weight="700" letter-spacing="1.4">ACTIVE DAYS</text>
  <text x="378" y="166" fill="#dce9fa" font-family="Arial, Helvetica, sans-serif" font-size="36" font-weight="700">183</text>
  <text x="532" y="82" fill="#7f96b2" font-family="Arial, Helvetica, sans-serif" font-size="11" font-weight="700" letter-spacing="1.4">LAST 12 WEEKS</text>
  <g fill="#1d2633"><rect x="532" y="111" width="12" height="12" rx="3"/><rect x="556" y="128" width="12" height="12" rx="3"/><rect x="580" y="145" width="12" height="12" rx="3"/><rect x="604" y="162" width="12" height="12" rx="3"/><rect x="628" y="111" width="12" height="12" rx="3"/><rect x="652" y="128" width="12" height="12" rx="3"/><rect x="676" y="145" width="12" height="12" rx="3"/><rect x="700" y="162" width="12" height="12" rx="3"/><rect x="724" y="111" width="12" height="12" rx="3"/><rect x="748" y="128" width="12" height="12" rx="3"/><rect x="772" y="145" width="12" height="12" rx="3"/><rect x="796" y="162" width="12" height="12" rx="3"/></g>
  <g fill="#23bfa2"><rect x="532" y="128" width="12" height="12" rx="3"/><rect x="580" y="162" width="12" height="12" rx="3"/><rect x="628" y="145" width="12" height="12" rx="3"/><rect x="676" y="111" width="12" height="12" rx="3"/><rect x="724" y="162" width="12" height="12" rx="3"/><rect x="772" y="128" width="12" height="12" rx="3"/></g>
  <circle cx="40" cy="216" r="4" fill="#8ef0c4"/>
  <text x="52" y="220" fill="#a4b6cb" font-family="Arial, Helvetica, sans-serif" font-size="12">Waiting for the first GitHub Actions refresh</text>
  <text x="836" y="220" fill="#526984" font-family="Arial, Helvetica, sans-serif" font-size="11" text-anchor="end">shakibul742</text>
</svg>
